<svg width="24" height="24" viewBox="0 0 24 24" fill="none" xmlns="http://www.w3.org/2000/svg">
<path d="M22.5 11.4167C22.504 12.9565 22.1442 14.4756 21.45 15.85C20.6268 17.4971 19.3614 18.8824 17.7954 19.8509C16.2293 20.8193 14.4246 21.3327 12.5833 21.3334C11.0435 21.3374 9.52447 20.9776 8.15 20.2834L1.5 22.5L3.71667 15.85C3.02242 14.4756 2.66265 12.9565 2.66667 11.4167C2.66738 9.57542 3.18071 7.77069 4.14917 6.20468C5.11763 4.63866 6.50296 3.3732 8.15 2.55003C9.52447 1.85579 11.0435 1.49602 12.5833 1.50003H13.1667C15.5984 1.63419 17.8952 2.66059 19.6173 4.3827C21.3394 6.10482 22.3658 8.40163 22.5 10.8334V11.4167Z" stroke="white" stroke-width="2" stroke-linecap="round" stroke-linejoin="round"/>
</svg>
