<svg width="27" height="27" viewBox="0 0 27 27" fill="none" xmlns="http://www.w3.org/2000/svg">
<path d="M16.5583 5.83329C17.6979 6.05562 18.7451 6.61293 19.5661 7.43388C20.387 8.25484 20.9443 9.3021 21.1667 10.4416L16.5583 5.83329ZM16.5583 1.16663C18.9258 1.42963 21.1335 2.48983 22.819 4.17313C24.5044 5.85644 25.5673 8.0628 25.8333 10.43L16.5583 1.16663ZM24.6667 19.74V23.24C24.668 23.5649 24.6014 23.8865 24.4713 24.1842C24.3411 24.4819 24.1502 24.7491 23.9108 24.9688C23.6713 25.1885 23.3887 25.3557 23.0809 25.4598C22.7731 25.5639 22.4469 25.6025 22.1233 25.5733C18.5333 25.1832 15.0848 23.9565 12.055 21.9916C9.23614 20.2004 6.84623 17.8105 5.055 14.9916C3.08331 11.948 1.85629 8.48279 1.47334 4.87663C1.44418 4.554 1.48252 4.22885 1.58592 3.92185C1.68932 3.61486 1.8555 3.33276 2.0739 3.09352C2.29229 2.85427 2.55811 2.66312 2.85443 2.53223C3.15074 2.40135 3.47107 2.3336 3.795 2.33329H7.295C7.86119 2.32772 8.41009 2.52822 8.83939 2.89741C9.26869 3.26661 9.54909 3.77931 9.62834 4.33996C9.77606 5.46004 10.05 6.55981 10.445 7.61829C10.602 8.03587 10.6359 8.48969 10.5429 8.92599C10.4498 9.36228 10.2337 9.76276 9.92 10.08L8.43834 11.5616C10.0992 14.4824 12.5175 16.9008 15.4383 18.5616L16.92 17.08C17.2372 16.7663 17.6377 16.5501 18.074 16.4571C18.5103 16.364 18.9641 16.398 19.3817 16.555C20.4402 16.9499 21.5399 17.2239 22.66 17.3716C23.2267 17.4516 23.7443 17.737 24.1143 18.1737C24.4843 18.6104 24.6809 19.1678 24.6667 19.74Z" stroke="white" stroke-width="2" stroke-linecap="round" stroke-linejoin="round"/>
</svg>
