<svg width="28" height="28" viewBox="0 0 28 28" fill="none" xmlns="http://www.w3.org/2000/svg">
<rect width="28" height="28" rx="8" fill="#516BE8"/>
<path d="M18 11.3333C18 10.2724 17.5786 9.25503 16.8284 8.50489C16.0783 7.75474 15.0609 7.33331 14 7.33331C12.9391 7.33331 11.9217 7.75474 11.1716 8.50489C10.4214 9.25503 10 10.2724 10 11.3333C10 16 8 17.3333 8 17.3333H20C20 17.3333 18 16 18 11.3333Z" stroke="white" stroke-width="2" stroke-linecap="round" stroke-linejoin="round"/>
<path d="M15.1533 20C15.0361 20.2021 14.8679 20.3698 14.6655 20.4864C14.4631 20.6029 14.2336 20.6643 14 20.6643C13.7664 20.6643 13.5369 20.6029 13.3345 20.4864C13.1321 20.3698 12.9639 20.2021 12.8467 20" stroke="white" stroke-width="2" stroke-linecap="round" stroke-linejoin="round"/>
</svg>
