<svg width="28" height="28" viewBox="0 0 28 28" fill="none" xmlns="http://www.w3.org/2000/svg">
<rect width="28" height="28" rx="8" fill="#FF7854"/>
<path d="M12.86 7.57335L7.21335 17C7.09693 17.2016 7.03533 17.4302 7.03467 17.663C7.03402 17.8958 7.09434 18.1248 7.20963 18.327C7.32492 18.5293 7.49116 18.6978 7.69182 18.8159C7.89247 18.934 8.12055 18.9975 8.35335 19H19.6467C19.8795 18.9975 20.1076 18.934 20.3082 18.8159C20.5089 18.6978 20.6751 18.5293 20.7904 18.327C20.9057 18.1248 20.966 17.8958 20.9654 17.663C20.9647 17.4302 20.9031 17.2016 20.7867 17L15.14 7.57335C15.0212 7.37742 14.8538 7.21543 14.6541 7.103C14.4545 6.99058 14.2292 6.93152 14 6.93152C13.7709 6.93152 13.5456 6.99058 13.3459 7.103C13.1462 7.21543 12.9789 7.37742 12.86 7.57335V7.57335Z" stroke="white" stroke-width="2" stroke-linecap="round" stroke-linejoin="round"/>
<path d="M14 11V13.6667" stroke="white" stroke-width="2" stroke-linecap="round" stroke-linejoin="round"/>
<path d="M14 16.3333H14.0067" stroke="white" stroke-width="2" stroke-linecap="round" stroke-linejoin="round"/>
</svg>
