<svg width="28" height="28" viewBox="0 0 28 28" fill="none" xmlns="http://www.w3.org/2000/svg">
<rect width="28" height="28" rx="8" fill="#A584FF"/>
<path d="M13.8609 19.1971H19.8609" stroke="white" stroke-width="2" stroke-linecap="round" stroke-linejoin="round"/>
<path d="M16.8609 8.19711C17.1261 7.93189 17.4858 7.7829 17.8609 7.7829C18.0466 7.7829 18.2305 7.81948 18.4021 7.89055C18.5737 7.96162 18.7296 8.06579 18.8609 8.19711C18.9922 8.32843 19.0964 8.48433 19.1675 8.65592C19.2385 8.8275 19.2751 9.01139 19.2751 9.19711C19.2751 9.38283 19.2385 9.56673 19.1675 9.73831C19.0964 9.90989 18.9922 10.0658 18.8609 10.1971L10.5276 18.5304L7.8609 19.1971L8.52757 16.5304L16.8609 8.19711Z" stroke="white" stroke-width="2" stroke-linecap="round" stroke-linejoin="round"/>
</svg>
